# xmcd
#
# Track frame offsets:
#	150
#	16523
#	34896
#	50435
#
# Disc length: 872
#
# Revision: 1
# Processed by: cddbd v1.5.1PL0 Copyright (c) Steve Scherf et al.
# Submitted via: VisiTrax 2.9.5.180 - For more info visit www.synapsa.com
# Normalized: r0:DSETVAR1
#
DISCID=24036604
DTITLE=Various Artist - CDX 230 2000
DYEAR=2000
DGENRE=
TTITLE0=John Michael Montgomery - Nothing catches Jesus by surprise
TTITLE1=Shania Twain - Rock this country
TTITLE2=George Strait - The best day
TTITLE3=Laura Pursell - Am I naive
EXTD=
EXTT0=
EXTT1=
EXTT2=
EXTT3=
PLAYORDER=
